<mxfile host="app.diagrams.net" modified="2024-02-22T11:31:54.261Z" agent="Mozilla/5.0 (Windows NT 10.0; Win64; x64; rv:123.0) Gecko/20100101 Firefox/123.0" version="22.1.20" etag="6oDwQG2byya8M1_nWo3E" type="github">
  <diagram name="Seite-1" id="0WJeokGfOIzi5ATYm3fj">
    <mxGraphModel>
      <root>
        <mxCell id="0" />
        <mxCell id="1" parent="0" />
      </root>
    </mxGraphModel>
  </diagram>
</mxfile>
